<mxfile modified="2020-09-03T13:54:12.469Z" host="app.diagrams.net" agent="5.0 (Windows NT 6.1; WOW64) AppleWebKit/537.36 (KHTML, like Gecko) Chrome/72.0.3626.81 Safari/537.36 SE 2.X MetaSr 1.0" etag="vWtcJncxYrAWqYtIyTLO" version="13.6.6" type="github">
  <diagram id="l8hXMBHkgcEJcSW0mbfh" name="Page-1">
    <mxGraphModel dx="2386" dy="2421" grid="0" gridSize="10" guides="0" tooltips="1" connect="1" arrows="1" fold="1" page="1" pageScale="1" pageWidth="1169" pageHeight="827" math="0" shadow="0">
      <root>
        <mxCell id="0" />
        <mxCell id="1" parent="0" />
        <mxCell id="uz8olMuk1VV1xPFckfv_-70" value="" style="whiteSpace=wrap;html=1;rounded=0;dashed=1;strokeWidth=3;fontFamily=Tahoma;fontSize=20;fillColor=none;strokeColor=#036897;" vertex="1" parent="1">
          <mxGeometry x="540" y="130" width="1190" height="520" as="geometry" />
        </mxCell>
        <mxCell id="uz8olMuk1VV1xPFckfv_-6" value="" style="whiteSpace=wrap;html=1;strokeWidth=2;" vertex="1" parent="1">
          <mxGeometry x="569.25" y="148" width="440" height="210" as="geometry" />
        </mxCell>
        <mxCell id="uz8olMuk1VV1xPFckfv_-19" style="edgeStyle=orthogonalEdgeStyle;rounded=0;orthogonalLoop=1;jettySize=auto;html=1;" edge="1" parent="1" source="8--HhbSZYtI3ddgJnD71-16" target="uz8olMuk1VV1xPFckfv_-2">
          <mxGeometry relative="1" as="geometry" />
        </mxCell>
        <mxCell id="8--HhbSZYtI3ddgJnD71-16" value="User" style="shape=image;verticalLabelPosition=bottom;verticalAlign=top;imageAspect=0;aspect=fixed;image=data:image/svg+xml,PHN2ZyB4bWxucz0iaHR0cDovL3d3dy53My5vcmcvMjAwMC9zdmciIHZlcnNpb249IjEiIHZpZXdCb3g9IjAgMCA0OCA0OCIgZW5hYmxlLWJhY2tncm91bmQ9Im5ldyAwIDAgNDggNDgiPiYjeGE7ICAgIDxwb2x5Z29uIGZpbGw9IiNGRjk4MDAiIHBvaW50cz0iMjQsMzcgMTksMzEgMTksMjUgMjksMjUgMjksMzEiLz4mI3hhOyAgICA8ZyBmaWxsPSIjRkZBNzI2Ij4mI3hhOyAgICAgICAgPGNpcmNsZSBjeD0iMzMiIGN5PSIxOSIgcj0iMiIvPiYjeGE7ICAgICAgICA8Y2lyY2xlIGN4PSIxNSIgY3k9IjE5IiByPSIyIi8+JiN4YTsgICAgPC9nPiYjeGE7ICAgIDxwYXRoIGZpbGw9IiNGRkI3NEQiIGQ9Ik0zMywxM2MwLTcuNi0xOC01LTE4LDBjMCwxLjEsMCw1LjksMCw3YzAsNSw0LDksOSw5czktNCw5LTlDMzMsMTguOSwzMywxNC4xLDMzLDEzeiIvPiYjeGE7ICAgIDxwYXRoIGZpbGw9IiM0MjQyNDIiIGQ9Ik0yNCw0Yy02LjEsMC0xMCw0LjktMTAsMTFjMCwwLjgsMCwyLjMsMCwyLjNsMiwxLjd2LTVsMTItNGw0LDR2NWwyLTEuN2MwLDAsMC0xLjUsMC0yLjNjMC00LTEtOC02LTlsLTEtMiBIMjR6Ii8+JiN4YTsgICAgPGcgZmlsbD0iIzc4NDcxOSI+JiN4YTsgICAgICAgIDxjaXJjbGUgY3g9IjI4IiBjeT0iMTkiIHI9IjEiLz4mI3hhOyAgICAgICAgPGNpcmNsZSBjeD0iMjAiIGN5PSIxOSIgcj0iMSIvPiYjeGE7ICAgIDwvZz4mI3hhOyAgICA8cG9seWdvbiBmaWxsPSIjZmZmIiBwb2ludHM9IjI0LDQzIDE5LDMxIDI0LDMyIDI5LDMxIi8+JiN4YTsgICAgPHBvbHlnb24gZmlsbD0iI0QzMkYyRiIgcG9pbnRzPSIyMywzNSAyMi4zLDM5LjUgMjQsNDMuNSAyNS43LDM5LjUgMjUsMzUgMjYsMzQgMjQsMzIgMjIsMzQiLz4mI3hhOyAgICA8cGF0aCBmaWxsPSIjNTQ2RTdBIiBkPSJNMjksMzFMMjksMzFsLTUsMTJsLTUtMTJjMCwwLTExLDItMTEsMTNoMzJDNDAsMzMsMjksMzEsMjksMzF6Ii8+JiN4YTs8L3N2Zz4=;labelBackgroundColor=#ffffff;" parent="1" vertex="1">
          <mxGeometry x="1145" y="-430" width="70" height="70" as="geometry" />
        </mxCell>
        <mxCell id="uz8olMuk1VV1xPFckfv_-2" value="" style="shape=mxgraph.cisco.storage.cloud;html=1;pointerEvents=1;dashed=0;strokeWidth=2;verticalLabelPosition=bottom;verticalAlign=top;align=center;outlineConnect=0;fillColor=#dae8fc;strokeColor=#6c8ebf;" vertex="1" parent="1">
          <mxGeometry x="745" y="-139" width="780" height="186" as="geometry" />
        </mxCell>
        <mxCell id="uz8olMuk1VV1xPFckfv_-3" value="" style="shape=mxgraph.cisco.servers.communications_server;html=1;pointerEvents=1;dashed=0;fillColor=#036897;strokeColor=#ffffff;strokeWidth=2;verticalLabelPosition=bottom;verticalAlign=top;align=center;outlineConnect=0;" vertex="1" parent="1">
          <mxGeometry x="955.25" y="302" width="54" height="56" as="geometry" />
        </mxCell>
        <mxCell id="uz8olMuk1VV1xPFckfv_-7" value="" style="whiteSpace=wrap;html=1;" vertex="1" parent="1">
          <mxGeometry x="1264.25" y="148" width="440" height="210" as="geometry" />
        </mxCell>
        <mxCell id="uz8olMuk1VV1xPFckfv_-8" value="" style="shape=mxgraph.cisco.servers.communications_server;html=1;pointerEvents=1;dashed=0;fillColor=#036897;strokeColor=#ffffff;strokeWidth=2;verticalLabelPosition=bottom;verticalAlign=top;align=center;outlineConnect=0;" vertex="1" parent="1">
          <mxGeometry x="1264.25" y="301" width="54" height="56" as="geometry" />
        </mxCell>
        <mxCell id="uz8olMuk1VV1xPFckfv_-9" value="" style="whiteSpace=wrap;html=1;" vertex="1" parent="1">
          <mxGeometry x="910" y="426" width="440" height="210" as="geometry" />
        </mxCell>
        <mxCell id="uz8olMuk1VV1xPFckfv_-10" value="" style="shape=mxgraph.cisco.servers.communications_server;html=1;pointerEvents=1;dashed=0;fillColor=#036897;strokeColor=#ffffff;strokeWidth=2;verticalLabelPosition=bottom;verticalAlign=top;align=center;outlineConnect=0;" vertex="1" parent="1">
          <mxGeometry x="1103" y="426" width="54" height="56" as="geometry" />
        </mxCell>
        <mxCell id="uz8olMuk1VV1xPFckfv_-12" value="" style="whiteSpace=wrap;html=1;" vertex="1" parent="1">
          <mxGeometry x="790" y="730" width="690" height="370" as="geometry" />
        </mxCell>
        <mxCell id="uz8olMuk1VV1xPFckfv_-13" value="User" style="shape=image;verticalLabelPosition=bottom;verticalAlign=top;imageAspect=0;aspect=fixed;image=data:image/svg+xml,PHN2ZyB4bWxucz0iaHR0cDovL3d3dy53My5vcmcvMjAwMC9zdmciIHZlcnNpb249IjEiIHZpZXdCb3g9IjAgMCA0OCA0OCIgZW5hYmxlLWJhY2tncm91bmQ9Im5ldyAwIDAgNDggNDgiPiYjeGE7ICAgIDxwb2x5Z29uIGZpbGw9IiNGRjk4MDAiIHBvaW50cz0iMjQsMzcgMTksMzEgMTksMjUgMjksMjUgMjksMzEiLz4mI3hhOyAgICA8ZyBmaWxsPSIjRkZBNzI2Ij4mI3hhOyAgICAgICAgPGNpcmNsZSBjeD0iMzMiIGN5PSIxOSIgcj0iMiIvPiYjeGE7ICAgICAgICA8Y2lyY2xlIGN4PSIxNSIgY3k9IjE5IiByPSIyIi8+JiN4YTsgICAgPC9nPiYjeGE7ICAgIDxwYXRoIGZpbGw9IiNGRkI3NEQiIGQ9Ik0zMywxM2MwLTcuNi0xOC01LTE4LDBjMCwxLjEsMCw1LjksMCw3YzAsNSw0LDksOSw5czktNCw5LTlDMzMsMTguOSwzMywxNC4xLDMzLDEzeiIvPiYjeGE7ICAgIDxwYXRoIGZpbGw9IiM0MjQyNDIiIGQ9Ik0yNCw0Yy02LjEsMC0xMCw0LjktMTAsMTFjMCwwLjgsMCwyLjMsMCwyLjNsMiwxLjd2LTVsMTItNGw0LDR2NWwyLTEuN2MwLDAsMC0xLjUsMC0yLjNjMC00LTEtOC02LTlsLTEtMiBIMjR6Ii8+JiN4YTsgICAgPGcgZmlsbD0iIzc4NDcxOSI+JiN4YTsgICAgICAgIDxjaXJjbGUgY3g9IjI4IiBjeT0iMTkiIHI9IjEiLz4mI3hhOyAgICAgICAgPGNpcmNsZSBjeD0iMjAiIGN5PSIxOSIgcj0iMSIvPiYjeGE7ICAgIDwvZz4mI3hhOyAgICA8cG9seWdvbiBmaWxsPSIjZmZmIiBwb2ludHM9IjI0LDQzIDE5LDMxIDI0LDMyIDI5LDMxIi8+JiN4YTsgICAgPHBvbHlnb24gZmlsbD0iI0QzMkYyRiIgcG9pbnRzPSIyMywzNSAyMi4zLDM5LjUgMjQsNDMuNSAyNS43LDM5LjUgMjUsMzUgMjYsMzQgMjQsMzIgMjIsMzQiLz4mI3hhOyAgICA8cGF0aCBmaWxsPSIjNTQ2RTdBIiBkPSJNMjksMzFMMjksMzFsLTUsMTJsLTUtMTJjMCwwLTExLDItMTEsMTNoMzJDNDAsMzMsMjksMzEsMjksMzF6Ii8+JiN4YTs8L3N2Zz4=;labelBackgroundColor=#ffffff;" vertex="1" parent="1">
          <mxGeometry x="1085" y="-420" width="70" height="70" as="geometry" />
        </mxCell>
        <mxCell id="uz8olMuk1VV1xPFckfv_-20" style="edgeStyle=orthogonalEdgeStyle;rounded=0;orthogonalLoop=1;jettySize=auto;html=1;entryX=0.89;entryY=0.2;entryDx=0;entryDy=0;entryPerimeter=0;" edge="1" parent="1" source="uz8olMuk1VV1xPFckfv_-14" target="uz8olMuk1VV1xPFckfv_-2">
          <mxGeometry relative="1" as="geometry" />
        </mxCell>
        <mxCell id="uz8olMuk1VV1xPFckfv_-14" value="User" style="shape=image;verticalLabelPosition=bottom;verticalAlign=top;imageAspect=0;aspect=fixed;image=data:image/svg+xml,PHN2ZyB4bWxucz0iaHR0cDovL3d3dy53My5vcmcvMjAwMC9zdmciIHZlcnNpb249IjEiIHZpZXdCb3g9IjAgMCA0OCA0OCIgZW5hYmxlLWJhY2tncm91bmQ9Im5ldyAwIDAgNDggNDgiPiYjeGE7ICAgIDxwb2x5Z29uIGZpbGw9IiNGRjk4MDAiIHBvaW50cz0iMjQsMzcgMTksMzEgMTksMjUgMjksMjUgMjksMzEiLz4mI3hhOyAgICA8ZyBmaWxsPSIjRkZBNzI2Ij4mI3hhOyAgICAgICAgPGNpcmNsZSBjeD0iMzMiIGN5PSIxOSIgcj0iMiIvPiYjeGE7ICAgICAgICA8Y2lyY2xlIGN4PSIxNSIgY3k9IjE5IiByPSIyIi8+JiN4YTsgICAgPC9nPiYjeGE7ICAgIDxwYXRoIGZpbGw9IiNGRkI3NEQiIGQ9Ik0zMywxM2MwLTcuNi0xOC01LTE4LDBjMCwxLjEsMCw1LjksMCw3YzAsNSw0LDksOSw5czktNCw5LTlDMzMsMTguOSwzMywxNC4xLDMzLDEzeiIvPiYjeGE7ICAgIDxwYXRoIGZpbGw9IiM0MjQyNDIiIGQ9Ik0yNCw0Yy02LjEsMC0xMCw0LjktMTAsMTFjMCwwLjgsMCwyLjMsMCwyLjNsMiwxLjd2LTVsMTItNGw0LDR2NWwyLTEuN2MwLDAsMC0xLjUsMC0yLjNjMC00LTEtOC02LTlsLTEtMiBIMjR6Ii8+JiN4YTsgICAgPGcgZmlsbD0iIzc4NDcxOSI+JiN4YTsgICAgICAgIDxjaXJjbGUgY3g9IjI4IiBjeT0iMTkiIHI9IjEiLz4mI3hhOyAgICAgICAgPGNpcmNsZSBjeD0iMjAiIGN5PSIxOSIgcj0iMSIvPiYjeGE7ICAgIDwvZz4mI3hhOyAgICA8cG9seWdvbiBmaWxsPSIjZmZmIiBwb2ludHM9IjI0LDQzIDE5LDMxIDI0LDMyIDI5LDMxIi8+JiN4YTsgICAgPHBvbHlnb24gZmlsbD0iI0QzMkYyRiIgcG9pbnRzPSIyMywzNSAyMi4zLDM5LjUgMjQsNDMuNSAyNS43LDM5LjUgMjUsMzUgMjYsMzQgMjQsMzIgMjIsMzQiLz4mI3hhOyAgICA8cGF0aCBmaWxsPSIjNTQ2RTdBIiBkPSJNMjksMzFMMjksMzFsLTUsMTJsLTUtMTJjMCwwLTExLDItMTEsMTNoMzJDNDAsMzMsMjksMzEsMjksMzF6Ii8+JiN4YTs8L3N2Zz4=;labelBackgroundColor=#ffffff;" vertex="1" parent="1">
          <mxGeometry x="1211" y="-420" width="70" height="70" as="geometry" />
        </mxCell>
        <mxCell id="uz8olMuk1VV1xPFckfv_-1" value="" style="shape=mxgraph.cisco.misc.key;html=1;pointerEvents=1;dashed=0;fillColor=#fff2cc;strokeColor=#d6b656;strokeWidth=2;verticalLabelPosition=bottom;verticalAlign=top;align=center;outlineConnect=0;" vertex="1" parent="1">
          <mxGeometry x="875" y="-150" width="60" height="24" as="geometry" />
        </mxCell>
        <mxCell id="uz8olMuk1VV1xPFckfv_-22" style="edgeStyle=orthogonalEdgeStyle;rounded=0;orthogonalLoop=1;jettySize=auto;html=1;exitX=0.25;exitY=1;exitDx=0;exitDy=0;entryX=0.2;entryY=0.17;entryDx=0;entryDy=0;entryPerimeter=0;" edge="1" parent="1" source="uz8olMuk1VV1xPFckfv_-13" target="uz8olMuk1VV1xPFckfv_-2">
          <mxGeometry relative="1" as="geometry">
            <mxPoint x="1102.5" y="-350" as="sourcePoint" />
            <mxPoint x="900.9999999999995" y="-107.38000000000011" as="targetPoint" />
          </mxGeometry>
        </mxCell>
        <mxCell id="uz8olMuk1VV1xPFckfv_-23" value="" style="shape=mxgraph.cisco.misc.key;html=1;pointerEvents=1;dashed=0;fillColor=#fff2cc;strokeColor=#d6b656;strokeWidth=2;verticalLabelPosition=bottom;verticalAlign=top;align=center;outlineConnect=0;" vertex="1" parent="1">
          <mxGeometry x="1105" y="-174" width="60" height="24" as="geometry" />
        </mxCell>
        <mxCell id="uz8olMuk1VV1xPFckfv_-24" value="" style="shape=mxgraph.cisco.misc.key;html=1;pointerEvents=1;dashed=0;fillColor=#fff2cc;strokeColor=#d6b656;strokeWidth=2;verticalLabelPosition=bottom;verticalAlign=top;align=center;outlineConnect=0;" vertex="1" parent="1">
          <mxGeometry x="1415" y="-150" width="60" height="24" as="geometry" />
        </mxCell>
        <mxCell id="uz8olMuk1VV1xPFckfv_-26" value="&lt;font style=&quot;font-size: 27px&quot;&gt;计算节点&lt;/font&gt;" style="text;html=1;resizable=0;autosize=1;align=center;verticalAlign=middle;points=[];fillColor=none;strokeColor=none;rounded=0;fontFamily=Tahoma;" vertex="1" parent="1">
          <mxGeometry x="720" y="310" width="120" height="20" as="geometry" />
        </mxCell>
        <mxCell id="uz8olMuk1VV1xPFckfv_-27" value="&lt;font style=&quot;font-size: 27px&quot;&gt;控制节点&lt;/font&gt;" style="text;html=1;resizable=0;autosize=1;align=center;verticalAlign=middle;points=[];fillColor=none;strokeColor=none;rounded=0;" vertex="1" parent="1">
          <mxGeometry x="770" y="521" width="120" height="20" as="geometry" />
        </mxCell>
        <mxCell id="uz8olMuk1VV1xPFckfv_-28" value="&lt;font style=&quot;font-size: 27px&quot;&gt;网络节点&lt;/font&gt;" style="text;html=1;resizable=0;autosize=1;align=center;verticalAlign=middle;points=[];fillColor=none;strokeColor=none;rounded=0;" vertex="1" parent="1">
          <mxGeometry x="1437" y="319" width="120" height="20" as="geometry" />
        </mxCell>
        <mxCell id="uz8olMuk1VV1xPFckfv_-30" value="密码信息管理" style="whiteSpace=wrap;html=1;rounded=1;dashed=1;strokeWidth=1;strokeColor=#3399FF;fontSize=20;" vertex="1" parent="1">
          <mxGeometry x="579.25" y="168" width="95" height="110" as="geometry" />
        </mxCell>
        <mxCell id="uz8olMuk1VV1xPFckfv_-31" value="密码算法执行模块" style="whiteSpace=wrap;html=1;rounded=1;dashed=1;strokeWidth=1;strokeColor=#3399FF;fontSize=15;" vertex="1" parent="1">
          <mxGeometry x="689.25" y="168" width="95" height="110" as="geometry" />
        </mxCell>
        <mxCell id="uz8olMuk1VV1xPFckfv_-32" value="密码算法仿真API" style="whiteSpace=wrap;html=1;rounded=1;dashed=1;strokeWidth=1;strokeColor=#3399FF;fontSize=15;" vertex="1" parent="1">
          <mxGeometry x="799.25" y="166" width="95" height="110" as="geometry" />
        </mxCell>
        <mxCell id="uz8olMuk1VV1xPFckfv_-33" value="后台管理&lt;br&gt;系统" style="whiteSpace=wrap;html=1;rounded=1;dashed=1;strokeWidth=1;strokeColor=#3399FF;fontSize=15;" vertex="1" parent="1">
          <mxGeometry x="918.5" y="510" width="95" height="110" as="geometry" />
        </mxCell>
        <mxCell id="uz8olMuk1VV1xPFckfv_-34" value="资源分配调度" style="whiteSpace=wrap;html=1;rounded=1;dashed=1;strokeWidth=1;strokeColor=#3399FF;fontSize=15;" vertex="1" parent="1">
          <mxGeometry x="1028.5" y="510" width="95" height="110" as="geometry" />
        </mxCell>
        <mxCell id="uz8olMuk1VV1xPFckfv_-35" value="访问控制" style="whiteSpace=wrap;html=1;rounded=1;dashed=1;strokeWidth=1;strokeColor=#3399FF;fontSize=15;" vertex="1" parent="1">
          <mxGeometry x="1140.5" y="510" width="95" height="110" as="geometry" />
        </mxCell>
        <mxCell id="uz8olMuk1VV1xPFckfv_-36" value="秘钥分&lt;br&gt;配策略" style="whiteSpace=wrap;html=1;rounded=1;dashed=1;strokeWidth=1;strokeColor=#3399FF;fontSize=15;" vertex="1" parent="1">
          <mxGeometry x="1246.5" y="510" width="95" height="110" as="geometry" />
        </mxCell>
        <mxCell id="uz8olMuk1VV1xPFckfv_-37" value="流量监控" style="whiteSpace=wrap;html=1;rounded=1;dashed=1;strokeWidth=1;strokeColor=#3399FF;fontSize=20;" vertex="1" parent="1">
          <mxGeometry x="1291.75" y="176" width="95" height="110" as="geometry" />
        </mxCell>
        <mxCell id="uz8olMuk1VV1xPFckfv_-38" value="网络服务组件" style="whiteSpace=wrap;html=1;rounded=1;dashed=1;strokeWidth=1;strokeColor=#3399FF;fontSize=20;" vertex="1" parent="1">
          <mxGeometry x="1431.75" y="176" width="95" height="110" as="geometry" />
        </mxCell>
        <mxCell id="uz8olMuk1VV1xPFckfv_-39" value="网络拓扑仿真API" style="whiteSpace=wrap;html=1;rounded=1;dashed=1;strokeWidth=1;strokeColor=#3399FF;fontSize=20;" vertex="1" parent="1">
          <mxGeometry x="1581.75" y="176" width="95" height="110" as="geometry" />
        </mxCell>
        <mxCell id="uz8olMuk1VV1xPFckfv_-43" value="训练场景管理" style="whiteSpace=wrap;html=1;rounded=1;dashed=1;strokeWidth=1;strokeColor=#3399FF;fontSize=20;" vertex="1" parent="1">
          <mxGeometry x="902.75" y="167" width="95" height="110" as="geometry" />
        </mxCell>
        <mxCell id="uz8olMuk1VV1xPFckfv_-46" value="&lt;font style=&quot;font-size: 27px&quot;&gt;硬件设备资源&lt;/font&gt;" style="whiteSpace=wrap;html=1;rounded=1;dashed=1;strokeWidth=1;strokeColor=#3399FF;fontSize=15;" vertex="1" parent="1">
          <mxGeometry x="823.5" y="1010" width="626.5" height="70" as="geometry" />
        </mxCell>
        <mxCell id="uz8olMuk1VV1xPFckfv_-47" value="&lt;font style=&quot;font-size: 27px&quot;&gt;hypervisor&lt;/font&gt;" style="whiteSpace=wrap;html=1;rounded=1;dashed=1;strokeWidth=1;strokeColor=#3399FF;fontSize=15;" vertex="1" parent="1">
          <mxGeometry x="821.75" y="920" width="626.5" height="70" as="geometry" />
        </mxCell>
        <mxCell id="uz8olMuk1VV1xPFckfv_-48" value="OS" style="whiteSpace=wrap;html=1;rounded=1;dashed=1;strokeWidth=1;strokeColor=#3399FF;fontSize=15;" vertex="1" parent="1">
          <mxGeometry x="823.5" y="840" width="616.5" height="60" as="geometry" />
        </mxCell>
        <mxCell id="uz8olMuk1VV1xPFckfv_-50" value="密息数据" style="whiteSpace=wrap;html=1;rounded=1;dashed=1;strokeWidth=1;strokeColor=#3399FF;fontSize=20;" vertex="1" parent="1">
          <mxGeometry x="821.75" y="737" width="95" height="90" as="geometry" />
        </mxCell>
        <mxCell id="uz8olMuk1VV1xPFckfv_-51" value="逆向工具" style="whiteSpace=wrap;html=1;rounded=1;dashed=1;strokeWidth=1;strokeColor=#3399FF;fontSize=20;" vertex="1" parent="1">
          <mxGeometry x="933.5" y="737" width="95" height="90" as="geometry" />
        </mxCell>
        <mxCell id="uz8olMuk1VV1xPFckfv_-52" value="密码DNA池" style="whiteSpace=wrap;html=1;rounded=1;dashed=1;strokeWidth=1;strokeColor=#3399FF;fontSize=20;" vertex="1" parent="1">
          <mxGeometry x="1045.5" y="737" width="95" height="90" as="geometry" />
        </mxCell>
        <mxCell id="uz8olMuk1VV1xPFckfv_-53" value="密码算法&lt;br style=&quot;font-size: 20px;&quot;&gt;C代码" style="whiteSpace=wrap;html=1;rounded=1;dashed=1;strokeWidth=1;strokeColor=#3399FF;fontSize=20;" vertex="1" parent="1">
          <mxGeometry x="1161" y="737" width="95" height="90" as="geometry" />
        </mxCell>
        <mxCell id="uz8olMuk1VV1xPFckfv_-54" value="学习资料&lt;br style=&quot;font-size: 20px;&quot;&gt;数据" style="whiteSpace=wrap;html=1;rounded=1;dashed=1;strokeWidth=1;strokeColor=#3399FF;fontSize=20;" vertex="1" parent="1">
          <mxGeometry x="1272.5" y="737" width="95" height="90" as="geometry" />
        </mxCell>
        <mxCell id="uz8olMuk1VV1xPFckfv_-55" value="&lt;font style=&quot;font-size: 27px&quot;&gt;......&lt;/font&gt;" style="text;html=1;resizable=0;autosize=1;align=center;verticalAlign=middle;points=[];fillColor=none;strokeColor=none;rounded=0;dashed=1;fontFamily=Tahoma;fontSize=22;" vertex="1" parent="1">
          <mxGeometry x="1377" y="767" width="60" height="30" as="geometry" />
        </mxCell>
        <mxCell id="uz8olMuk1VV1xPFckfv_-56" value="后台管理&lt;br&gt;系统" style="whiteSpace=wrap;html=1;rounded=1;dashed=1;strokeWidth=1;strokeColor=#3399FF;fontSize=15;" vertex="1" parent="1">
          <mxGeometry x="918.5" y="510" width="95" height="110" as="geometry" />
        </mxCell>
        <mxCell id="uz8olMuk1VV1xPFckfv_-57" value="后台管理&lt;br style=&quot;font-size: 20px;&quot;&gt;系统" style="whiteSpace=wrap;html=1;rounded=1;dashed=1;strokeWidth=1;strokeColor=#3399FF;fontSize=20;" vertex="1" parent="1">
          <mxGeometry x="918.5" y="510" width="95" height="110" as="geometry" />
        </mxCell>
        <mxCell id="uz8olMuk1VV1xPFckfv_-58" value="访问控制" style="whiteSpace=wrap;html=1;rounded=1;dashed=1;strokeWidth=1;strokeColor=#3399FF;fontSize=20;" vertex="1" parent="1">
          <mxGeometry x="1140.5" y="510" width="95" height="110" as="geometry" />
        </mxCell>
        <mxCell id="uz8olMuk1VV1xPFckfv_-59" value="秘钥分&lt;br style=&quot;font-size: 20px;&quot;&gt;配策略" style="whiteSpace=wrap;html=1;rounded=1;dashed=1;strokeWidth=1;strokeColor=#3399FF;fontSize=20;" vertex="1" parent="1">
          <mxGeometry x="1246.5" y="510" width="95" height="110" as="geometry" />
        </mxCell>
        <mxCell id="uz8olMuk1VV1xPFckfv_-60" value="资源分配调度" style="whiteSpace=wrap;html=1;rounded=1;dashed=1;strokeWidth=1;strokeColor=#3399FF;fontSize=20;" vertex="1" parent="1">
          <mxGeometry x="1028.5" y="510" width="95" height="110" as="geometry" />
        </mxCell>
        <mxCell id="uz8olMuk1VV1xPFckfv_-61" value="密码算法执行模块" style="whiteSpace=wrap;html=1;rounded=1;dashed=1;strokeWidth=1;strokeColor=#3399FF;fontSize=20;" vertex="1" parent="1">
          <mxGeometry x="689.25" y="168" width="95" height="110" as="geometry" />
        </mxCell>
        <mxCell id="uz8olMuk1VV1xPFckfv_-62" value="密码算法仿真API" style="whiteSpace=wrap;html=1;rounded=1;dashed=1;strokeWidth=1;strokeColor=#3399FF;fontSize=20;" vertex="1" parent="1">
          <mxGeometry x="799.25" y="166" width="95" height="110" as="geometry" />
        </mxCell>
        <mxCell id="uz8olMuk1VV1xPFckfv_-65" value="" style="html=1;shadow=0;dashed=0;align=center;verticalAlign=middle;shape=mxgraph.arrows2.triadArrow;dy=10;dx=20;arrowHead=40;rounded=1;strokeColor=#000000;strokeWidth=1;fillColor=#036897;fontFamily=Tahoma;fontSize=20;rotation=-180;" vertex="1" parent="1">
          <mxGeometry x="1009.25" y="310" width="255" height="116" as="geometry" />
        </mxCell>
        <mxCell id="uz8olMuk1VV1xPFckfv_-68" value="" style="html=1;shadow=0;dashed=0;align=center;verticalAlign=middle;shape=mxgraph.arrows2.arrow;dy=0.7;dx=38.33;notch=0;rounded=1;strokeColor=#000000;strokeWidth=1;fillColor=#036897;fontFamily=Tahoma;fontSize=20;rotation=90;" vertex="1" parent="1">
          <mxGeometry x="1117.5" y="-27.5" width="65" height="227.5" as="geometry" />
        </mxCell>
        <mxCell id="uz8olMuk1VV1xPFckfv_-71" value="" style="html=1;shadow=0;dashed=0;align=center;verticalAlign=middle;shape=mxgraph.arrows2.arrow;dy=0.7;dx=38.33;notch=0;rounded=1;strokeColor=#000000;strokeWidth=1;fillColor=#036897;fontFamily=Tahoma;fontSize=20;rotation=-90;" vertex="1" parent="1">
          <mxGeometry x="1092" y="572" width="65" height="227.5" as="geometry" />
        </mxCell>
      </root>
    </mxGraphModel>
  </diagram>
</mxfile>
